<svg xmlns="http://www.w3.org/2000/svg" viewBox="0 0 100 100" width="100" height="100">
  <title>cinders</title>
    <path d="M 50 88
             C 24 74 16 54 28 38
             C 22 56 34 62 32 50
             C 30 36 42 24 50 10
             C 58 24 58 38 68 28
             C 80 42 76 60 72 50
             C 76 64 64 76 50 88 Z"
          fill="#5a1a2a"/>
    <path d="M 50 76
             C 36 66 32 54 40 44
             C 38 54 44 58 44 52
             C 44 44 48 38 50 30
             C 52 38 54 46 60 40
             C 66 50 62 62 50 76 Z"
          fill="#8a8a8a" opacity="0.6"/>
</svg>