<svg xmlns="http://www.w3.org/2000/svg" viewBox="0 0 100 100" width="100" height="100">
  <title>engines</title>
    <path d="M 50.00 6.00 L 66.84 9.35 L 62.25 20.44 L 72.63 27.37 L 81.11 18.89 L 90.65 33.16 L 79.56 37.75 L 82.00 50.00 L 94.00 50.00 L 90.65 66.84 L 79.56 62.25 L 72.63 72.63 L 81.11 81.11 L 66.84 90.65 L 62.25 79.56 L 50.00 82.00 L 50.00 94.00 L 33.16 90.65 L 37.75 79.56 L 27.37 72.63 L 18.89 81.11 L 9.35 66.84 L 20.44 62.25 L 18.00 50.00 L 6.00 50.00 L 9.35 33.16 L 20.44 37.75 L 27.37 27.37 L 18.89 18.89 L 33.16 9.35 L 37.75 20.44 L 50.00 18.00 Z" fill="#8b2020"/>
    <circle cx="50" cy="50" r="20" fill="#1a1a1a"/>
    <circle cx="50" cy="50" r="10" fill="#8b2020"/>
</svg>